/* XPM */
static char *_288c4a9129c4a7d909ad27a1d6563bb[] = {
/* columns rows colors chars-per-pixel */
"190 40 3 1 ",
"  c gray47",
". c #797979",
"X c None",
/* pixels */
"XXXXXX.   .XXXXXXXXXXXXXXXXXXXXXXXXXXXXXXXXXXXXXXXXXXXXXXXXXXXXXXXXXXXXXXXXXXXXXXXXXXXXXXXXXXXXXXXXXXXXXXXXXXXXXXXXXXXXXXXXXXXXXXXXXXXXXXXXXXXXXXXXXXXXXXXXXXXXXXXXXXXXXXXXXXXXXXXXXXXXXXXXXXX",
"XXX...........XXXXXX.............XXXXXX...............XXXXXXXX........XXXXXXX................ XXX...............XXXX.............XXXXXXXXXXXXXXXXXXXXXXXXX...............XXXX......XXXX ......",
"XX.............XXXXX...............XXXX...............XXXXXXX..........XXXXXX................ XXX...............XXXX..............XXXXXXXXXXXXXXXXXXXXXXXX................XXX.......XXX......X",
"X...............XXXX...............XXXX...............XXXXXXX..........XXXXXX.................XXX...............XXXX...............XXXXXXXXXXXXXXXXXXXXXXX................XXXX......XX......XX",
"......  ........XXXX...... .........XXX...............XXXXXXX..........XXXXXX................XXXX...............XXXX...............XXXXXXXXXXXXXXXXXXXXXXX......XXXX......XXXXX......X......XX",
"......XXXX ......XXX......XXXX......XXX......XXXXXXXXXXXXXXX............XXXXXXXXXX......XXXXXXXXX......XXXXXXXXXXXXX......XXXX......XXXXXXXXXXXXXXXXXXXXXX......XXXX......XXXXX............XXX",
"......XXXXXXXXXXXXXX......XXX ......XXX..............XXXXXXX.....XX.....XXXXXXXXXX......XXXXXXXXX..............XXXXX..... XXXX......XXXXXXXXXXXXXXXXXXXXXX................XXXXXX...........XXX",
"......XXXXXXXXXXXXXX................XXX..............XXXXXX......XX.....XXXXXXXXXX......XXXXXXXXX..............XXXXX..... XXXX......XXXXXXXXXXXXXXXXXXXXXX...............XXXXXXX .........XXXX",
"......XXXXXXXXXXXXXX.............. XXXX..............XXXXXX......XX......XXXXXXXXX......XXXXXXXXX..............XXXXX..... XXXX......XXXXXXXXXXXXXXXXXXXXXX............... XXXXXXX........XXXXX",
"......XXXXXXXXXXXXXX............. XXXXX..............XXXXXX..............XXXXXXXXX......XXXXXXXXX..............XXXXX..... XXXX......XXXXXXXXXXXXXXXXXXXXXX................XXXXXXXX.......XXXXX",
"......XXXX.......XXX............. XXXXX......XXXXXXXXXXXXX...............XXXXXXXXX......XXXXXXXXX......XXXXXXXXXXXXX..... XXXX......XXXXXXXXXXXXXXXXXXXXXX......XXXX ..... XXXXXXX......XXXXXX",
"........X ......XXXX......XX.......XXXX......XXXXXXXXXXXXX ...............XXXXXXXX......XXXXXXXXX..... XXXXXXXXXXXXX..... X........XXXXXXXXXXXXXXXXXXXXXXX......XXXX ..... XXXXXXX......XXXXXX",
"X.............. XXXX......XXX......XXXX............... XXX................XXXXXXXX......XXXXXXXXX...............XXXX.............. XXXXXXXXXXXXXXXXXXXXXXX................XXXXXXXX......XXXXXX",
"XX.............XXXXX......XXX.......XXX................XX......XXXXXX.....XXXXXXXX......XXXXXXXXX...............XXXX..............XXXXXXXXXXXXXXXXXXXXXXXX................XXXXXXXX......XXXXXX",
"XXX...........XXXXXX......XXXX......XXX................XX......XXXXXX......XXXXXXX......XXXXXXXXX...............XXXX.............XXXXXXXXXXXXXXXXXXXXXXXXX...............XXXXXXXXX......XXXXXX",
"XXXXX...... XXXXXXXX......XXXX......XXX...............XXX.... XXXXXXXX.....XXXXXXXX.....XXXXXXXXX...............XXXX ....... .XXXXXXXXXXXXXXXXXXXXXXXXXXXXX......... .XXXXXXXXXXXXX.....XXXXXX",
"XXXXXXXXXXXXXXXXXXXXXXXXXXXXXXXXXXXXXXXXXXXXXXXXXXXXXXXXXXXXXXXXXXXXXXXXXXXXXXXXXXXXXXXXXXXXXXXXXXXXXXXXXXXXXXXXXXXXXXXXXXXXXXXXXXXXXXXXXXXXXXXXXXXXXXXXXXXXXXXXXXXXXXXXXXXXXXXXXXXXXXXXXXXXXX",
"XXXXXXXXXXXXXXXXXXXXXXXXXXXXXXXXXXXXXXXXXXXXXXXXXXXXXXXXXXXXXXXXXXXXXXXXXXXXXXXXXXXXXXXXXXXXXXXXXXXXXXXXXXXXXXXXXXXXXXXXXXXXXXXXXXXXXXXXXXXXXXXXXXXXXXXXXXXXXXXXXXXXXXXXXXXXXXXXXXXXXXXXXXXXXX",
"XXXXXXXXXXXXXXXXXXXXXXXXXXXXXXXXXXXXXXXXXXXXXXXXXXXXXXXXXXXXXXXXXXXXXXXXXXXXXXXXXXXXXXXXXXXXXXXXXXXXXXXXXXXXXXXXXXXXXXXXXXXXXXXXXXXXXXXXXXXXXXXXXXXXXXXXXXXXXXXXXXXXXXXXXXXXXXXXXXXXXXXXXXXXXX",
"XXXXXXXXXXXXXXXXXXXXXXXXXXXXXXXXXXXXXXXXXXXXXXXXXXXXXXXXXXXXXXXXXXXXXXXXXXXXXXXXXXXXXXXXXXXXXXXXXXXXXXXXXXXXXXXXXXXXXXXXXXXXXXXXXXXXXXXXXXXXXXXXXXXXXXXXXXXXXXXXXXXXXXXXXXXXXXXXXXXXXXXXXXXXXX",
"XXXXXXXXXXXXXXXXXXXXXXXXXXXXXXXXXXXXXXXXXXXXXXXXXXXXXXXXXXXXXXXXXXXXXXXXXXXXXXXXXXXXXXXXXXXXXXXXXXXXXXXXXXXXXXXXXXXXXXXXXXXXXXXXXXXXXXXXXXXXXXXXXXXXXXXXXXXXXXXXXXXXXXXXXXXXXXXXXXXXXXXXXXXXXX",
".......XXXXXX...... XXXXXXXXX.......... XXXXXXXXXX........XXXXXXXXXXXXXXX...................XXXXX........XXXX .......XXXXXXXXX..........XXXXXXXXX.......XXXXXX.......XXXX ...............XXXXX",
"........XXXXX...... XXXXXXXX........... XXXXXXXXXX........XXXXXXXXXXXXXXX...................XXXXXX........XX........XXXXXXXXX............XXXXXXXX .......XXXXX.......XXXX..................XXX",
"........XXXXX.......XXXXXXXX ...........XXXXXXXXXX........XXXXXXXXXXXXXXX...................XXXXXX........XX........XXXXXXXXX............XXXXXXXX.........XXXX.......XXXX...................XX",
".........XXXX...... XXXXXXXX.............XXXXXXXXX........XXXXXXXXXXXXXXX...................XXXXXXX................XXXXXXXXXX............ XXXXXXX......... XXX.......XXXX .................. X",
"..........XXX...... XXXXXXX..............XXXXXXXXX........XXXXXXXXXXXXXXX...................XXXXXXXX..............XXXXXXXXXX..............XXXXXXX .........XXX.......XXXX.................... ",
"...........XX...... XXXXXXX.......X......XXXXXXXXX........XXXXXXXXXXXXXXX........XXXXXXXXXXXXXXXXXXXX.............XXXXXXXXXX...... .......XXXXXXX ..........XX.......XXXX .......XXXXX .......",
"........... X.......XXXXXXX......XX.......XXXXXXXX........XXXXXXXXXXXXXXX.......   .  . ..XXXXXXXXXXX............XXXXXXXXXXX......XX.......XXXXXX............X.......XXXX .......XXXXX........",
"............ ...... XXXXXX.......XX.......XXXXXXXX........XXXXXXXXXXXXXXX..................XXXXXXXXXXX..........XXXXXXXXXXX.......XX.......XXXXXX ...................XXXX........XXXXX .......",
"................... XXXXXX.......XXX......XXXXXXXX........XXXXXXXXXXXXXXX..................XXXXXXXXXXX ........XXXXXXXXXXXX.......XXX......XXXXXX ...................XXXX .......XXXXX .......",
"................... XXXXXX......XXXX.......XXXXXXX........XXXXXXXXXXXXXXX..................XXXXXXXXXXX......... XXXXXXXXXXX......XXXX.......XXXXX....................XXXX .......XXXXX........",
"...... ............ XXXXX........ .........XXXXXXX........XXXXXXXXXXXXXXX................. XXXXXXXXXX............XXXXXXXXX ...... . ........XXXXX ...................XXXX........XXXXX .......",
".......X........... XXXXX..................XXXXXXX........XXXXXXXXXXXXXXX........XXXXXXXXXXXXXXXXXXX.............XXXXXXXXX..................XXXXX.......X............XXXX .......XXXXX........",
".......XX.......... XXXX....................XXXXXX........XXXXXXXXXXXXXXX........XXXXXXXXXXXXXXXXXX ..............XXXXXXX....................XXXX ......XX...........XXXX........XXXX.........",
".......XXX......... XXXX ...................XXXXXX..................XXXXX...................XXXXXXX................XXXXXX....................XXXX ......XXX..........XXXX....................X",
".......XXX......... XXXX.....................XXXXX...................XXXX....................XXXXX........X........XXXXXX.....................XXX.......XXXX ........XXXX ...................X",
".......XXXX........ XXX........XXXXXXX.......XXXXX.................. XXXX................... XXXX........XXX........XXXX........XXXXXX .......XXX ......XXXXX........XXXX ................. XX",
".......XXXXX .......XXX.......XXXXXXXX.......XXXXX...................XXXX....................XXXX........XXXX........XXX.......XXXXXXXX ......XXX.......XXXXXX.......XXXX..................XXX",
" ......XXXXXX......XXXX.......XXXXXXXXX.......XXXX..................XXXXX....................XXX........XXXXXX.......XXX.......XXXXXXXX........XX.......XXXXXX.......XXXXX..............XXXXXX",
"XXXXXXXXXXXXXXXXXXXXXXXXXXXXXXXXXXXXXXXXXXXXXXXXXXXXXXXXXXXXXXXXXXXXXXXXXXXXXXXXXXXXXXXXXXXXXXXXXXXXXXXXXXXXXXXXXXXXXXXXXXXXXXXXXXXXXXXXXXXXXXXXXXXXXXXXXXXXXXXXXXXXXXXXXXXXXXXXXXXXXXXXXXXXXX"
};
